<svg width="67" height="67" viewBox="0 0 67 67" fill="none" xmlns="http://www.w3.org/2000/svg">
<path d="M33.5 0C26.8743 0 20.3975 1.96474 14.8884 5.64577C9.37937 9.32679 5.08559 14.5588 2.55005 20.6801C0.0145151 26.8014 -0.648897 33.5372 0.643708 40.0355C1.93631 46.5339 5.12688 52.503 9.81194 57.1881C14.497 61.8731 20.4661 65.0637 26.9645 66.3563C33.4629 67.6489 40.1986 66.9855 46.3199 64.4499C52.4412 61.9144 57.6732 57.6206 61.3542 52.1116C65.0353 46.6025 67 40.1257 67 33.5C66.9901 24.6183 63.4575 16.1032 57.1772 9.82284C50.8968 3.54251 42.3817 0.00988364 33.5 0ZM29.0333 42.4333C29.0333 43.0256 28.798 43.5937 28.3792 44.0125C27.9604 44.4314 27.3923 44.6667 26.8 44.6667C26.2077 44.6667 25.6396 44.4314 25.2208 44.0125C24.802 43.5937 24.5667 43.0256 24.5667 42.4333V24.5667C24.5667 23.9743 24.802 23.4063 25.2208 22.9875C25.6396 22.5686 26.2077 22.3333 26.8 22.3333C27.3923 22.3333 27.9604 22.5686 28.3792 22.9875C28.798 23.4063 29.0333 23.9743 29.0333 24.5667V42.4333ZM42.4333 42.4333C42.4333 43.0256 42.1981 43.5937 41.7792 44.0125C41.3604 44.4314 40.7923 44.6667 40.2 44.6667C39.6077 44.6667 39.0396 44.4314 38.6208 44.0125C38.202 43.5937 37.9667 43.0256 37.9667 42.4333V24.5667C37.9667 23.9743 38.202 23.4063 38.6208 22.9875C39.0396 22.5686 39.6077 22.3333 40.2 22.3333C40.7923 22.3333 41.3604 22.5686 41.7792 22.9875C42.1981 23.4063 42.4333 23.9743 42.4333 24.5667V42.4333Z" fill="#E28AB9"/>
</svg>
