<svg width="67" height="67" viewBox="0 0 67 67" fill="none" xmlns="http://www.w3.org/2000/svg">
<path d="M33.5 0C26.8743 0 20.3975 1.96474 14.8884 5.64577C9.37937 9.32679 5.08559 14.5588 2.55005 20.6801C0.0145151 26.8014 -0.648897 33.5372 0.643708 40.0355C1.93631 46.5339 5.12688 52.503 9.81194 57.1881C14.497 61.8731 20.4661 65.0637 26.9645 66.3563C33.4629 67.6489 40.1986 66.9855 46.3199 64.4499C52.4412 61.9144 57.6732 57.6206 61.3542 52.1116C65.0353 46.6025 67 40.1257 67 33.5C66.9901 24.6183 63.4575 16.1032 57.1772 9.82284C50.8968 3.54251 42.3817 0.00988364 33.5 0ZM43.3169 35.3309L35.0459 41.1051L30.7066 44.1339C30.3718 44.3677 29.9793 44.5051 29.5718 44.5314C29.1644 44.5576 28.7575 44.4717 28.3955 44.2829C28.0334 44.094 27.7301 43.8096 27.5184 43.4604C27.3068 43.1113 27.1949 42.7108 27.1949 42.3025V24.6975C27.1949 24.2892 27.3068 23.8887 27.5184 23.5395C27.7301 23.1904 28.0334 22.9059 28.3955 22.7171C28.7575 22.5283 29.1644 22.4424 29.5718 22.4686C29.9793 22.4949 30.3718 22.6323 30.7066 22.866L35.0459 25.8949L43.3169 31.6685C43.6118 31.8743 43.8526 32.1482 44.0189 32.4671C44.1851 32.7859 44.272 33.1401 44.272 33.4997C44.272 33.8593 44.1851 34.2135 44.0189 34.5324C43.8526 34.8512 43.6118 35.1251 43.3169 35.3309Z" fill="#E28AB9"/>
</svg>
