<svg width="37" height="41" viewBox="0 0 37 41" fill="none" xmlns="http://www.w3.org/2000/svg">
<path fill-rule="evenodd" clip-rule="evenodd" d="M18.5 8.54172C18.5 7.88925 18.1646 7.29376 17.6357 7.0071C17.1067 6.72043 16.4766 6.79267 16.0118 7.19324L2.13685 19.1516C1.76132 19.4752 1.54167 19.9729 1.54167 20.5001C1.54167 21.0272 1.76132 21.5249 2.13685 21.8485L16.0118 33.8069C16.4766 34.2074 17.1067 34.2797 17.6357 33.993C18.1646 33.7063 18.5 33.1109 18.5 32.4584V20.5001C18.5 21.0272 18.7197 21.5249 19.0952 21.8485L32.9702 33.8069C33.435 34.2074 34.0651 34.2797 34.594 33.993C35.1229 33.7063 35.4583 33.1109 35.4583 32.4584V8.54172C35.4583 7.88925 35.1229 7.29376 34.594 7.0071C34.0651 6.72043 33.435 6.79267 32.9702 7.19324L19.0952 19.1516C18.7197 19.4752 18.5 19.9729 18.5 20.5001V8.54172ZM15.4167 28.9655L5.59444 20.5001L15.4167 12.0346V28.9655ZM32.375 28.9655L22.5528 20.5001L32.375 12.0346V28.9655Z" fill="#E28AB9"/>
</svg>
