<svg width="37" height="37" viewBox="0 0 37 37" fill="none" xmlns="http://www.w3.org/2000/svg">
<path fill-rule="evenodd" clip-rule="evenodd" d="M8.6714 4.96284C8.20864 4.59263 7.57464 4.52045 7.0405 4.77717C6.50637 5.03389 6.16667 5.57406 6.16667 6.16668V30.8333C6.16667 31.426 6.50637 31.9661 7.0405 32.2229C7.57464 32.4796 8.20864 32.4074 8.6714 32.0372L24.0881 19.7039C24.4538 19.4113 24.6667 18.9683 24.6667 18.5C24.6667 18.0317 24.4538 17.5887 24.0881 17.2962L8.6714 4.96284ZM20.6571 18.5L9.25 27.6257V9.37431L20.6571 18.5Z" fill="#E28AB9"/>
<path d="M30.8333 7.70835C30.8333 6.85691 30.1431 6.16668 29.2917 6.16668C28.4402 6.16668 27.75 6.85691 27.75 7.70835V29.2917C27.75 30.1431 28.4402 30.8333 29.2917 30.8333C30.1431 30.8333 30.8333 30.1431 30.8333 29.2917V7.70835Z" fill="#E28AB9"/>
</svg>
