<svg width="37" height="37" viewBox="0 0 37 37" fill="none" xmlns="http://www.w3.org/2000/svg">
<path fill-rule="evenodd" clip-rule="evenodd" d="M30.8333 6.16668C30.8333 5.57406 30.4936 5.03389 29.9595 4.77717C29.4254 4.52045 28.7914 4.59263 28.3286 4.96284L12.9119 17.2962C12.5462 17.5887 12.3333 18.0317 12.3333 18.5C12.3333 18.9683 12.5462 19.4113 12.9119 19.7039L28.3286 32.0372C28.7914 32.4074 29.4254 32.4796 29.9595 32.2229C30.4936 31.9661 30.8333 31.426 30.8333 30.8333V6.16668ZM27.75 27.6257L16.3429 18.5L27.75 9.37431V27.6257Z" fill="#E28AB9"/>
<path d="M9.25001 7.70835C9.25001 6.85691 8.55978 6.16668 7.70834 6.16668C6.8569 6.16668 6.16667 6.85691 6.16667 7.70835V29.2917C6.16667 30.1431 6.8569 30.8333 7.70834 30.8333C8.55978 30.8333 9.25001 30.1431 9.25001 29.2917V7.70835Z" fill="#E28AB9"/>
</svg>
